grf
version=1
nRows=9
nColumns=37
inDegrees=no
endheader
time	ground_force_1_vx	ground_force_1_vy	ground_force_1_vz	ground_force_1_px	ground_force_1_py	ground_force_1_pz	ground_moment_1_mx	ground_moment_1_my	ground_moment_1_mz	ground_force_2_vx	ground_force_2_vy	ground_force_2_vz	ground_force_2_px	ground_force_2_py	ground_force_2_pz	ground_moment_2_mx	ground_moment_2_my	ground_moment_2_mz	ground_force_3_vx	ground_force_3_vy	ground_force_3_vz	ground_force_3_px	ground_force_3_py	ground_force_3_pz	ground_moment_3_mx	ground_moment_3_my	ground_moment_3_mz	ground_force_4_vx	ground_force_4_vy	ground_force_4_vz	ground_force_4_px	ground_force_4_py	ground_force_4_pz	ground_moment_4_mx	ground_moment_4_my	ground_moment_4_mz
      3.50000000	      0.00000000	     -0.00000000	      0.00000000	      0.00000000	      0.00000000	      0.00000000	      0.00000000	      0.00000000	      0.00000000	     14.07844734	     28.89504814	   -439.50933838	   -311.54208246	  -1118.34913770	      0.00000000	      0.00000000	      0.00000000	   8334.98815333	     -8.92638395	    -32.43068999	   -435.58932495	   -276.54823521	   -667.59622932	      0.00000000	      0.00000000	     -0.00000000	 -12966.97352798	      0.00000000	     -0.00000000	      0.00000000	      0.00000000	      0.00000000	      0.00000000	      0.00000000	      0.00000000	      0.00000000
      3.51000000	      0.00000000	     -0.00000000	      0.00000000	      0.00000000	      0.00000000	      0.00000000	      0.00000000	      0.00000000	      0.00000000	     14.21833229	     29.16255760	   -439.77606201	   -310.18843403	  -1118.45488836	      0.00000000	      0.00000000	      0.00000000	   8302.26616329	     -9.08214279	    -32.32573621	   -438.46823120	   -276.88473785	   -666.47180330	      0.00000000	      0.00000000	     -0.00000000	 -13125.14785947	      0.00000000	     -0.00000000	      0.00000000	      0.00000000	      0.00000000	      0.00000000	      0.00000000	      0.00000000	      0.00000000
      3.52000000	      0.00000000	     -0.00000000	      0.00000000	      0.00000000	      0.00000000	      0.00000000	      0.00000000	      0.00000000	      0.00000000	     13.75545597	     29.25179291	   -440.41540527	   -310.17059367	  -1119.29841988	      0.00000000	      0.00000000	      0.00000000	   8382.70706945	     -9.33156205	    -32.78419795	   -438.23583984	   -276.57494495	   -668.19398159	      0.00000000	      0.00000000	     -0.00000000	 -13062.81951682	      0.00000000	     -0.00000000	      0.00000000	      0.00000000	      0.00000000	      0.00000000	      0.00000000	      0.00000000	      0.00000000
      3.53000000	      0.00000000	     -0.00000000	      0.00000000	      0.00000000	      0.00000000	      0.00000000	      0.00000000	      0.00000000	      0.00000000	     12.79139996	     30.26660538	   -439.80438232	   -308.83046398	  -1118.48291886	      0.00000000	      0.00000000	      0.00000000	   8320.49203288	     -9.56373117	    -32.46494591	   -437.13781738	   -275.64063662	   -666.75885579	      0.00000000	      0.00000000	     -0.00000000	 -12979.22342527	      0.00000000	     -0.00000000	      0.00000000	      0.00000000	      0.00000000	      0.00000000	      0.00000000	      0.00000000	      0.00000000
      3.54000000	      0.00000000	     -0.00000000	      0.00000000	      0.00000000	      0.00000000	      0.00000000	      0.00000000	      0.00000000	      0.00000000	     12.88647747	     31.07477379	   -441.75970459	   -307.49506417	  -1119.70842720	      0.00000000	      0.00000000	      0.00000000	   8464.00063595	     -9.49491879	    -32.30864251	   -435.74121094	   -275.80091723	   -667.01164042	      0.00000000	      0.00000000	     -0.00000000	 -12982.58715430	      0.00000000	     -0.00000000	      0.00000000	      0.00000000	      0.00000000	      0.00000000	      0.00000000	      0.00000000	      0.00000000
      3.55000000	      0.00000000	     -0.00000000	      0.00000000	      0.00000000	      0.00000000	      0.00000000	      0.00000000	      0.00000000	      0.00000000	     11.06210327	     31.50001144	   -441.82812500	   -307.07371273	  -1119.49732999	      0.00000000	      0.00000000	      0.00000000	   8240.47505745	     -9.65219208	    -32.32347023	   -435.94531250	   -275.13509941	   -666.69751656	      0.00000000	      0.00000000	     -0.00000000	 -13073.22192447	      0.00000000	     -0.00000000	      0.00000000	      0.00000000	      0.00000000	      0.00000000	      0.00000000	      0.00000000	      0.00000000
      3.56000000	      0.00000000	     -0.00000000	      0.00000000	      0.00000000	      0.00000000	      0.00000000	      0.00000000	      0.00000000	      0.00000000	     10.20500565	     31.44385338	   -441.62023926	   -306.68670526	  -1119.39698675	      0.00000000	      0.00000000	      0.00000000	   8368.79415777	    -10.44872477	    -32.98036865	   -436.99401855	   -274.41826101	   -666.53502055	      0.00000000	      0.00000000	     -0.00000000	 -13035.20697686	      0.00000000	     -0.00000000	      0.00000000	      0.00000000	      0.00000000	      0.00000000	      0.00000000	      0.00000000	      0.00000000
      3.57000000	      0.00000000	     -0.00000000	      0.00000000	      0.00000000	      0.00000000	      0.00000000	      0.00000000	      0.00000000	      0.00000000	     10.84956741	     31.71170044	   -440.06219482	   -306.00930017	  -1118.91233373	      0.00000000	      0.00000000	      0.00000000	   8269.84051713	    -11.10873987	    -32.87309549	   -437.34921265	   -273.99185409	   -665.86350824	      0.00000000	      0.00000000	     -0.00000000	 -13096.48986369	      0.00000000	     -0.00000000	      0.00000000	      0.00000000	      0.00000000	      0.00000000	      0.00000000	      0.00000000	      0.00000000
      3.58000000	      0.00000000	     -0.00000000	      0.00000000	      0.00000000	      0.00000000	      0.00000000	      0.00000000	      0.00000000	      0.00000000	     11.68657684	     31.62310600	   -441.76141357	   -305.90011991	  -1120.79390062	      0.00000000	      0.00000000	      0.00000000	   8397.05031336	    -10.52131275	    -33.08551696	   -436.86016846	   -273.62035899	   -665.76782458	      0.00000000	      0.00000000	     -0.00000000	 -13051.81689585	      0.00000000	     -0.00000000	      0.00000000	      0.00000000	      0.00000000	      0.00000000	      0.00000000	      0.00000000	      0.00000000
